<svg id="objects" xmlns="http://www.w3.org/2000/svg" fill="white" viewBox="0 0 448.66 481.27"><defs><style>.cls-1{ ;}</style></defs><path class="cls-1" d="M203,222.19C52.22,258.68,60.87,157.71,117.24,154s117.91,54.9,191.53,77.79,131.41-7.28,151.78-61.91S456.05,49,377.87,49.27c-33.73.13-57.67,13.51-74,28.67C292.18,55.22,239.45-32.13,142.33,20.58,89.48,49.27,86,119.44,86,119.44s30-73.23,94.39-76.25c27.44-1.29,48.3,4.08,63.27,10.64,14.52,6.63,46.46,25.82,32.72,61.84-1.54,3.3-2.27,5.31-2.27,5.31l.58-.68c5.39-6.2,49-53.15,117.87-37.27,73.66,17,53,115.39-11.11,122.76s-94.56-30.57-190.7-76.14-227,54.64-147.47,106.1C120.08,285.46,203,222.19,203,222.19Z" transform="translate(-18.68 -3.94)"/><path class="cls-1" d="M299.2,470.61c107.56-23.55,131.55-60.46,131.55-60.46S331,436.89,230.06,444.39s-114.68-3.72-114.68-3.72,3-13.24,5.68-33.06c24.63,2.24,84.11,6,146.48-2.64,81.63-11.29,104.32-23,104.32-23s-117.11,6-182,1.23c-34.74-2.58-54.45-6.38-65.28-9.35,2.82-40.34.9-89.49-19.46-119,0,0,2.36,93.66-12.54,160.5L77.71,482.17S191.64,494.14,299.2,470.61Z" transform="translate(-18.68 -3.94)"/><path class="cls-1" d="M388.3,401.15s57.32-97.2.74-165.63c0,0,5.29,99.12,2.61,128.69S388.3,401.15,388.3,401.15Z" transform="translate(-18.68 -3.94)"/></svg>